<svg width="237" height="12" viewBox="0 0 237 12" fill="none" xmlns="http://www.w3.org/2000/svg">
<path d="M0.666667 6C0.666667 8.94552 3.05448 11.3333 6 11.3333C8.94552 11.3333 11.3333 8.94552 11.3333 6C11.3333 3.05448 8.94552 0.666667 6 0.666667C3.05448 0.666667 0.666667 3.05448 0.666667 6ZM225.667 6C225.667 8.94552 228.054 11.3333 231 11.3333C233.946 11.3333 236.333 8.94552 236.333 6C236.333 3.05448 233.946 0.666667 231 0.666667C228.054 0.666667 225.667 3.05448 225.667 6ZM6 7H118.5V5H6V7ZM118.5 7H231V5H118.5V7Z" fill="white"/>
</svg>
