<svg width="28" height="25" viewBox="0 0 28 25" fill="none" xmlns="http://www.w3.org/2000/svg">
<path d="M26.4641 6.12374C25.5855 4.64438 24.351 3.23718 23.5175 2.49894C21.6981 0.886923 20.1803 0.926181 19.4374 1.09314C19.1253 1.16329 18.8387 1.27896 18.5863 1.43325C17.29 0.47126 15.713 0 13.8051 0C11.8972 0 10.3201 0.47126 9.02383 1.4333C8.77146 1.27902 8.4849 1.16329 8.17277 1.09319C7.43005 0.926288 5.91208 0.886976 4.09272 2.49894C3.25919 3.23724 2.02482 4.64444 1.14604 6.12379C-0.0436765 8.12666 -0.308669 9.74687 0.358396 10.9396C1.1729 12.3957 2.40834 12.7683 3.40571 12.8602C3.16056 13.8123 3.00919 14.8308 3.00919 16.0998C3.00919 17.782 3.39206 19.2291 4.1473 20.4012C4.81118 21.4316 5.76697 22.2567 6.98807 22.8536C9.24423 23.9564 11.9592 24.084 13.8051 24.084C15.651 24.084 18.3661 23.9564 20.6222 22.8536C21.8433 22.2567 22.7991 21.4316 23.463 20.4012C24.2182 19.2291 24.6011 17.7819 24.6011 16.0998C24.6011 14.8309 24.4497 13.8124 24.2046 12.8602C25.2019 12.7683 26.4374 12.3956 27.2519 10.9395C27.9188 9.74692 27.6538 8.12666 26.4641 6.12374ZM3.93003 11.1957C3.04737 11.1725 2.32961 11.0016 1.83344 10.1146C1.49683 9.51272 1.7759 8.37273 2.59919 6.98677C3.38052 5.67135 4.50202 4.39406 5.21342 3.76383C6.38825 2.72284 7.26897 2.66551 7.68334 2.721C6.45021 4.22425 5.69438 6.17788 5.06232 8.07732C4.80056 8.86388 4.54829 9.53543 4.30422 10.185C4.17372 10.5325 4.04818 10.8667 3.93003 11.1957ZM12.7026 16.7366C12.2654 16.2996 12.0366 15.841 12.0366 15.6137C12.0366 15.4108 12.0714 15.3962 12.2006 15.3418C12.5691 15.1868 13.2928 15.1689 13.8051 15.1689C14.3174 15.1689 15.0411 15.1868 15.4095 15.3418C15.5388 15.3962 15.5736 15.4108 15.5736 15.6137C15.5736 15.841 15.3448 16.2996 14.9076 16.7366C14.4776 17.1663 14.0187 17.3981 13.805 17.3981C13.5914 17.3981 13.1325 17.1663 12.7026 16.7366ZM19.88 21.3353C18.583 21.9692 16.8661 22.3131 14.6501 22.3812V18.9194C15.3136 18.6634 15.854 18.1802 16.1023 17.932C16.4515 17.583 17.2636 16.6585 17.2636 15.6138C17.2636 14.7591 16.8379 14.1093 16.065 13.7841C15.5498 13.5673 14.895 13.4789 13.8051 13.4789C12.7153 13.4789 12.0605 13.5673 11.5453 13.7841C10.7723 14.1093 10.3466 14.759 10.3466 15.6138C10.3466 16.6585 11.1588 17.583 11.5079 17.932C11.7563 18.1803 12.2967 18.6634 12.9601 18.9194V22.3812C10.7441 22.3131 9.02718 21.9693 7.7302 21.3353C5.69061 20.3383 4.69912 18.6258 4.69912 16.0998C4.69912 13.9389 5.19708 12.6136 5.8862 10.7793C6.12417 10.1459 6.3938 9.42806 6.66575 8.61092C8.15951 4.12233 9.73965 1.68999 13.8051 1.68999C17.8705 1.68999 19.4507 4.12238 20.9444 8.61092C21.2163 9.42811 21.486 10.1459 21.7239 10.7793C22.413 12.6136 22.911 13.9389 22.911 16.0998C22.911 18.6258 21.9196 20.3383 19.88 21.3353ZM25.7768 10.1146C25.2806 11.0017 24.5629 11.1725 23.6802 11.1957C23.562 10.8666 23.4366 10.5325 23.3061 10.185C23.062 9.53548 22.8098 8.86388 22.548 8.07732C21.9159 6.17788 21.1601 4.22425 19.9269 2.721C20.3413 2.66562 21.2221 2.72284 22.397 3.76388C23.1084 4.39401 24.2298 5.67124 25.0111 6.98666C25.8344 8.37273 26.1134 9.51278 25.7768 10.1146Z" fill="black"/>
<path d="M10.9927 8.98242C10.3814 8.98242 9.88379 9.48507 9.88379 10.1057C9.88379 10.7263 10.3813 11.2294 10.9927 11.2294C11.6049 11.2294 12.1024 10.7262 12.1024 10.1057C12.1024 9.48507 11.6049 8.98242 10.9927 8.98242Z" fill="black"/>
<path d="M16.6093 8.97314C15.992 8.97314 15.4912 9.48 15.4912 10.1052C15.4912 10.7304 15.992 11.2373 16.6093 11.2373C17.2259 11.2373 17.7266 10.7304 17.7266 10.1052C17.7266 9.48 17.2259 8.97314 16.6093 8.97314Z" fill="black"/>
</svg>
