<svg width="21" height="21" viewBox="0 0 21 21" fill="none" xmlns="http://www.w3.org/2000/svg">
<path d="M12.5989 19.1092C12.4261 19.1522 12.2499 19.1905 12.0749 19.2227C11.6177 19.3077 11.3154 19.7475 11.3999 20.2052C11.4417 20.4304 11.5696 20.6179 11.7432 20.7403C11.9221 20.8663 12.1499 20.9232 12.3819 20.88C12.5902 20.8413 12.8002 20.7959 13.0062 20.7444C13.4577 20.6321 13.7328 20.1746 13.6202 19.7233C13.5078 19.2716 13.0508 18.9967 12.5989 19.1092Z" fill="black"/>
<path d="M18.8295 7.81467C18.8886 7.99257 19.0012 8.1378 19.1436 8.23815C19.3547 8.3868 19.6308 8.43682 19.8944 8.34967C20.3362 8.20296 20.5757 7.72649 20.4295 7.28485C20.3629 7.08352 20.289 6.88156 20.2103 6.68492C20.0374 6.25279 19.5472 6.0424 19.1149 6.21525C18.683 6.38802 18.4725 6.87832 18.6455 7.31058C18.7116 7.47586 18.7736 7.64551 18.8295 7.81467Z" fill="black"/>
<path d="M15.3374 17.9083C15.1887 18.0065 15.0353 18.1014 14.8807 18.1904C14.4775 18.423 14.3394 18.9385 14.5719 19.3416C14.635 19.4512 14.7191 19.5408 14.8159 19.6093C15.0759 19.7922 15.4289 19.8196 15.7229 19.6503C15.9066 19.5443 16.0893 19.4315 16.2664 19.3145C16.6545 19.058 16.7614 18.5352 16.5048 18.1469C16.2483 17.7584 15.7256 17.6517 15.3374 17.9083Z" fill="black"/>
<path d="M20.9552 10.1685C20.9369 9.7034 20.5451 9.34138 20.0799 9.35954C19.6152 9.37788 19.2529 9.76977 19.2712 10.2347C19.2782 10.4125 19.28 10.5929 19.2759 10.7705C19.2693 11.0621 19.412 11.3221 19.6337 11.4784C19.7658 11.5714 19.926 11.6277 20.0998 11.6317C20.5649 11.642 20.9504 11.2731 20.9607 10.8077C20.9653 10.5955 20.9636 10.3806 20.9552 10.1685Z" fill="black"/>
<path d="M18.6934 15.6903C18.3204 15.4105 17.7928 15.4865 17.5134 15.8588C17.4065 16.0014 17.2938 16.1422 17.1785 16.2778C16.877 16.6319 16.9196 17.1639 17.2738 17.4656C17.294 17.4827 17.3144 17.4984 17.3355 17.5132C17.6876 17.7615 18.177 17.7044 18.4617 17.3703C18.5994 17.2086 18.7337 17.0404 18.8616 16.8701C19.1409 16.4978 19.0653 15.9698 18.6934 15.6903Z" fill="black"/>
<path d="M19.933 12.6457C19.489 12.5065 19.0161 12.7537 18.8769 13.1978C18.8236 13.3674 18.7646 13.5379 18.7009 13.7048C18.561 14.0724 18.695 14.4767 19.0024 14.6934C19.0587 14.733 19.1208 14.7666 19.1883 14.7921C19.6231 14.958 20.1099 14.7399 20.2757 14.3049C20.3513 14.1064 20.4215 13.9036 20.485 13.7019C20.624 13.2578 20.377 12.785 19.933 12.6457Z" fill="black"/>
<path d="M8.92188 19.2315C8.16848 19.0963 7.44575 18.8659 6.76043 18.5446C6.75232 18.5404 6.74507 18.5356 6.73655 18.5317C6.57505 18.4557 6.41383 18.3743 6.25756 18.2892C6.25702 18.2885 6.25602 18.2881 6.25517 18.2878C5.96845 18.1299 5.68863 17.9552 5.41678 17.7638C1.45273 14.9714 0.499612 9.47461 3.29218 5.5106C3.89941 4.64896 4.63426 3.93011 5.4535 3.36037C5.46359 3.35334 5.47369 3.34636 5.48369 3.33928C8.37057 1.35014 12.2905 1.21608 15.3559 3.26011L14.6975 4.21138C14.5145 4.47615 14.6271 4.6691 14.9475 4.64026L17.8074 4.38423C18.1282 4.35539 18.3201 4.07787 18.2338 3.76803L17.4658 1.00106C17.3798 0.69086 17.1597 0.65373 16.9765 0.91846L16.3166 1.87198C14.067 0.361874 11.3688 -0.213952 8.69077 0.25044C8.42104 0.297123 8.15509 0.354259 7.8928 0.420768C7.89077 0.421129 7.88915 0.421354 7.88753 0.421714C7.87739 0.424193 7.86711 0.427482 7.85724 0.430231C5.5479 1.02327 3.53303 2.37017 2.09529 4.2919C2.08317 4.30628 2.07069 4.32033 2.05924 4.33597C2.01143 4.40036 1.96398 4.46624 1.91753 4.53212C1.84155 4.64008 1.76666 4.75075 1.69502 4.86142C1.68605 4.87476 1.6792 4.88832 1.67136 4.90179C0.484922 6.7403 -0.087344 8.8658 0.0107974 11.0297C0.0110227 11.0368 0.0106172 11.044 0.0107974 11.0513C0.0203051 11.2626 0.0370676 11.477 0.059823 11.6879C0.0610397 11.7015 0.0640587 11.7144 0.0663568 11.728C0.0898783 11.9402 0.119393 12.1528 0.156387 12.3654C0.532371 14.5345 1.5556 16.4864 3.08887 18.0052C3.09243 18.0087 3.09612 18.0126 3.09973 18.0163C3.10099 18.0177 3.10239 18.0184 3.1036 18.0197C3.51555 18.426 3.96363 18.8018 4.44609 19.1416C5.70868 20.0313 7.1146 20.6194 8.62449 20.8903C9.08262 20.9727 9.52024 20.6677 9.60243 20.2098C9.68458 19.7516 9.37988 19.3136 8.92188 19.2315Z" fill="black"/>
<path d="M9.96333 3.7666C9.58649 3.7666 9.28125 4.07211 9.28125 4.44841V11.2411L15.4937 14.4526C15.5937 14.5044 15.7008 14.5288 15.8061 14.5288C16.0529 14.5288 16.2912 14.3944 16.4124 14.1599C16.5852 13.8253 16.4544 13.4142 16.1198 13.2414L10.6446 10.4108V4.44841C10.6446 4.07211 10.3397 3.7666 9.96333 3.7666Z" fill="black"/>
</svg>
