<svg width="24" height="24" viewBox="0 0 24 24" fill="none" xmlns="http://www.w3.org/2000/svg">
<path d="M19.1246 0V1.46939H20.7821L17.5486 4.53544C16.4039 3.36403 14.8076 2.63559 13.0443 2.63559C10.6723 2.63559 8.60245 3.95334 7.5277 5.89505C7.43564 5.89102 7.34311 5.88858 7.25001 5.88858C3.77573 5.88858 0.949219 8.71509 0.949219 12.1894C0.949219 15.4152 3.38597 18.0821 6.5153 18.4471V20.3998H4.31559V21.8692H6.51539V24H7.98478V21.8692H10.2806V20.3998H7.98478V18.4471C10.0448 18.2068 11.8045 16.969 12.7666 15.2307C12.8587 15.2347 12.9512 15.2372 13.0442 15.2372C16.5186 15.2372 19.3451 12.4107 19.3451 8.93639C19.3451 7.75575 19.0184 6.65011 18.4511 5.70464L21.9629 2.37473V4.19972H23.4323V0H19.1246ZM7.25011 17.0208C4.58606 17.0208 2.4187 14.8534 2.4187 12.1893C2.4187 9.62906 4.4205 7.52798 6.94106 7.36809C6.81211 7.86966 6.74348 8.39513 6.74348 8.93639C6.74348 11.7706 8.62467 14.1735 11.204 14.9627C10.329 16.2065 8.88295 17.0208 7.25011 17.0208ZM11.8648 13.6219C9.76903 13.0941 8.21292 11.1937 8.21292 8.93639C8.21292 8.43783 8.28886 7.95666 8.42972 7.50384C10.5255 8.03166 12.0816 9.93211 12.0816 12.1894C12.0816 12.6879 12.0056 13.1691 11.8648 13.6219ZM13.3534 13.7576C13.4823 13.256 13.551 12.7306 13.551 12.1893C13.551 9.35508 11.6698 6.95217 9.09051 6.16294C9.96548 4.91925 11.4116 4.10489 13.0444 4.10489C15.7085 4.10489 17.8758 6.27225 17.8758 8.93634C17.8757 11.4966 15.8739 13.5977 13.3534 13.7576Z" fill="black"/>
</svg>
