<svg width="54" height="50" viewBox="0 0 54 50" fill="none" xmlns="http://www.w3.org/2000/svg">
<path d="M31.4388 46.7602C30.975 47.6829 29.3862 49.3553 26.7422 48.6633" stroke="#E1251B" stroke-width="1.2" stroke-linecap="round"/>
<path d="M32.3438 17.6936L42.4328 39.3196" stroke="#E1251B" stroke-width="1.2" stroke-linecap="round"/>
<path d="M47.2891 17.6936L36.5352 39.0004" stroke="#E1251B" stroke-width="1.2" stroke-linecap="round"/>
<path d="M15.8213 11.2909C16.4591 9.73387 18.2566 7.55397 20.344 11.2909" stroke="black" stroke-width="1.2"/>
<path d="M26.6087 9.38997C26.5507 11.6967 25.4955 17.4175 21.7381 21.8466C17.0415 27.3828 20.8684 37.4173 27.3045 33.7841" stroke="black" stroke-width="1.2"/>
<path d="M48.7964 43.4707C48.7964 44.9335 48.362 46.2337 47.6894 47.1537C47.0163 48.074 46.1367 48.58 45.2217 48.58C44.3066 48.58 43.427 48.074 42.754 47.1537C42.0813 46.2337 41.6469 44.9335 41.6469 43.4707C41.6469 42.0079 42.0813 40.7078 42.754 39.7878C43.427 38.8674 44.3066 38.3615 45.2217 38.3615C46.1367 38.3615 47.0163 38.8674 47.6894 39.7878C48.362 40.7078 48.7964 42.0079 48.7964 43.4707Z" fill="#E1251B" stroke="#E1251B" stroke-width="1.2"/>
<path d="M38.0103 43.4707C38.0103 44.9335 37.5759 46.2337 36.9032 47.1537C36.2302 48.074 35.3505 48.58 34.4355 48.58C33.5205 48.58 32.6409 48.074 31.9678 47.1537C31.2951 46.2337 30.8607 44.9335 30.8607 43.4707C30.8607 42.0079 31.2951 40.7078 31.9678 39.7878C32.6409 38.8674 33.5205 38.3615 34.4355 38.3615C35.3505 38.3615 36.2302 38.8674 36.9032 39.7878C37.5759 40.7078 38.0103 42.0079 38.0103 43.4707Z" fill="#E1251B" stroke="#E1251B" stroke-width="1.2"/>
<path d="M1.48047 17.692C6.55446 16.8615 7.82296 12.9631 7.82296 11.1176L1.48047 12.3872V17.692Z" fill="#E1251B" stroke="#E1251B" stroke-width="1.2"/>
<path d="M39.8276 19.2508C40.0595 11.3501 35.4441 -3.13644 15.1268 2.12301C14.6049 4.66053 12.3784 9.97777 7.64696 10.9466C2.91554 11.9155 1.26882 12.1577 1.03688 12.1577C0.804952 15.9639 1.55873 23.7146 6.42932 24.2682C11.2999 24.8219 17.5041 24.7296 19.9974 24.6143" stroke="black" stroke-width="1.2"/>
</svg>
