<svg width="48" height="45" viewBox="0 0 48 45" fill="none" xmlns="http://www.w3.org/2000/svg">
<path d="M1.94336 17.934C5.96903 17.1173 6.97545 13.2831 6.97545 11.4681L1.94336 12.7168V17.934Z" fill="#E1251B" stroke="#E1251B" stroke-width="1.2"/>
<path d="M15.9287 11.4275C16.5556 9.92749 18.3222 7.82747 20.3738 11.4275" stroke="black" stroke-width="1.2"/>
<path d="M26.5284 9.59525C26.4714 11.8175 25.4342 17.3287 21.7414 21.5954C17.1253 26.9288 20.8866 36.5955 27.2123 33.0955" stroke="black" stroke-width="1.2"/>
<path d="M39.5208 19.0948C39.7487 11.4837 35.2125 -2.47204 15.2438 2.59468C14.7309 5.03921 12.5425 10.1616 7.89229 11.0949C3.24205 12.0283 1.62358 12.2616 1.39563 12.2616C1.16767 15.9283 1.90852 23.3951 6.69554 23.9284C11.4825 24.4618 17.5803 24.3729 20.0308 24.2618" stroke="black" stroke-width="1.2"/>
<path d="M42.0458 28.1783H34.9239C34.8796 28.4279 34.8177 29.3085 34.9239 30.8336C35.03 32.3587 36.2067 33.2544 36.7817 33.5116H39.4359C41.1168 33.5116 41.8762 31.7263 42.0458 30.8336V28.1783Z" stroke="#E1251B" stroke-width="1.2"/>
<path d="M42.1227 28.5141H43.7596V30.6162C43.7087 31.2051 43.227 32.2442 41.708 31.6896" stroke="#E1251B" stroke-width="1.2"/>
<path d="M40 27.8457V26.5123" stroke="#E1251B" stroke-width="1.2" stroke-linecap="round"/>
<path d="M38.6289 27.8474L38.6289 25.8474" stroke="#E1251B" stroke-width="1.2" stroke-linecap="round"/>
<path d="M37.2617 27.8457V26.5123" stroke="#E1251B" stroke-width="1.2" stroke-linecap="round"/>
<path d="M43.5147 38.7139C41.8442 40.8877 39.5754 42.8189 38.6499 43.5128C33.4362 39.586 31.0313 34.6162 30.4806 32.6221C30.0216 31.4388 29.581 28.393 31.4903 25.6758C33.8768 22.2793 37.2271 22.0602 38.0073 21.8849C38.7876 21.7096 43.8819 21.9725 46.0848 25.9607C47.8472 29.1512 47.0945 32.403 46.4979 33.6301C46.1996 34.419 45.1853 36.5402 43.5147 38.7139Z" fill="#E1251B" stroke="#E1251B" stroke-width="1.2"/>
<rect x="35.1152" y="33.7618" width="7.02245" height="0.500005" stroke="#E1251B" stroke-width="0.500005"/>
<path d="M42.1405 29.8086H35.0186C34.9743 30.0582 34.9124 30.9388 35.0186 32.4639C35.1247 33.9891 36.3014 34.8848 36.8765 35.142H39.5306C41.2115 35.142 41.9709 33.3566 42.1405 32.4639V29.8086Z" stroke="white" stroke-width="1.2"/>
<path d="M42.2125 30.1422H43.8494V32.2442C43.7985 32.8331 43.3169 33.8723 41.7979 33.3177" stroke="white" stroke-width="1.2"/>
<path d="M40.0879 29.476V28.1426" stroke="white" stroke-width="1.2" stroke-linecap="round"/>
<path d="M38.7178 29.4754L38.7178 27.4753" stroke="white" stroke-width="1.2" stroke-linecap="round"/>
<path d="M37.3535 29.476V28.1426" stroke="white" stroke-width="1.2" stroke-linecap="round"/>
<rect x="35.21" y="35.3944" width="7.02245" height="0.500005" stroke="white" stroke-width="0.500005"/>
</svg>
