<svg width="25" height="25" viewBox="0 0 25 25" fill="none" xmlns="http://www.w3.org/2000/svg">
<mask id="path-1-inside-1_402_1046" fill="white">
<path d="M5.00364 5.55004C6.58016 5.55004 7.86276 4.30517 7.86276 2.77502C7.86276 1.24487 6.58016 0 5.00364 0C3.42713 0 2.14453 1.24487 2.14453 2.77502C2.14453 4.30517 3.42713 5.55004 5.00364 5.55004ZM5.00364 0.693756C6.18603 0.693756 7.14798 1.62741 7.14798 2.77502C7.14798 3.92263 6.18603 4.85629 5.00364 4.85629C3.82126 4.85629 2.85931 3.92263 2.85931 2.77502C2.85931 1.62741 3.82126 0.693756 5.00364 0.693756Z"/>
</mask>
<path d="M5.00364 5.55004C6.58016 5.55004 7.86276 4.30517 7.86276 2.77502C7.86276 1.24487 6.58016 0 5.00364 0C3.42713 0 2.14453 1.24487 2.14453 2.77502C2.14453 4.30517 3.42713 5.55004 5.00364 5.55004ZM5.00364 0.693756C6.18603 0.693756 7.14798 1.62741 7.14798 2.77502C7.14798 3.92263 6.18603 4.85629 5.00364 4.85629C3.82126 4.85629 2.85931 3.92263 2.85931 2.77502C2.85931 1.62741 3.82126 0.693756 5.00364 0.693756Z" fill="#E1251B"/>
<path d="M5.00364 6.55004C7.10409 6.55004 8.86276 4.88538 8.86276 2.77502H6.86276C6.86276 3.72495 6.05623 4.55004 5.00364 4.55004V6.55004ZM8.86276 2.77502C8.86276 0.66466 7.10409 -1 5.00364 -1V1C6.05623 1 6.86276 1.82509 6.86276 2.77502H8.86276ZM5.00364 -1C2.9032 -1 1.14453 0.66466 1.14453 2.77502H3.14453C3.14453 1.82509 3.95106 1 5.00364 1V-1ZM1.14453 2.77502C1.14453 4.88538 2.9032 6.55004 5.00364 6.55004V4.55004C3.95106 4.55004 3.14453 3.72495 3.14453 2.77502H1.14453ZM5.00364 1.69376C5.6621 1.69376 6.14798 2.20763 6.14798 2.77502H8.14798C8.14798 1.0472 6.70997 -0.306244 5.00364 -0.306244V1.69376ZM6.14798 2.77502C6.14798 3.34242 5.6621 3.85629 5.00364 3.85629V5.85629C6.70997 5.85629 8.14798 4.50285 8.14798 2.77502H6.14798ZM5.00364 3.85629C4.34519 3.85629 3.85931 3.34242 3.85931 2.77502H1.85931C1.85931 4.50285 3.29732 5.85629 5.00364 5.85629V3.85629ZM3.85931 2.77502C3.85931 2.20763 4.34519 1.69376 5.00364 1.69376V-0.306244C3.29732 -0.306244 1.85931 1.0472 1.85931 2.77502H3.85931Z" fill="#E1251B" mask="url(#path-1-inside-1_402_1046)"/>
<path d="M9.51818 8.67195C10.2079 8.67195 10.769 8.12731 10.769 7.45788C10.769 6.78845 10.2079 6.2438 9.51818 6.2438H2.14434C0.961949 6.2438 0 7.17746 0 8.32507V11.1926C0 12.222 0.774153 13.0787 1.78695 13.2444V17.6098C1.78695 17.8014 1.94696 17.9567 2.14434 17.9567C2.34171 17.9567 2.50172 17.8014 2.50172 17.6098V13.2739H5.00345C5.69316 13.2739 6.25431 12.7292 6.25431 12.0598C6.25431 11.3904 5.69316 10.8457 5.00345 10.8457H2.50172V8.32507C2.50172 8.1335 2.34171 7.97819 2.14434 7.97819C1.94696 7.97819 1.78695 8.1335 1.78695 8.32507V11.1926C1.78695 11.3842 1.94696 11.5395 2.14434 11.5395H5.00345C5.29903 11.5395 5.53953 11.7729 5.53953 12.0598C5.53953 12.3467 5.29903 12.5801 5.00345 12.5801H2.14434C1.35608 12.5801 0.714778 11.9577 0.714778 11.1926V8.32507C0.714778 7.56 1.35608 6.93756 2.14434 6.93756H4.76686C4.68942 7.09532 4.64606 7.27181 4.64606 7.45788C4.64606 8.12731 5.20721 8.67195 5.89692 8.67195H7.50517V22.2927C7.50517 22.6752 7.18452 22.9864 6.79039 22.9864C6.39627 22.9864 6.07562 22.6752 6.07562 22.2927V14.3145C6.07562 14.1229 5.9156 13.9676 5.71823 13.9676H4.28867C4.0913 13.9676 3.93128 14.1229 3.93128 14.3145V22.2927C3.93128 22.6752 3.61063 22.9864 3.2165 22.9864C2.82237 22.9864 2.50172 22.6752 2.50172 22.2927V18.9973C2.50172 18.8058 2.34171 18.6505 2.14434 18.6505C1.94696 18.6505 1.78695 18.8058 1.78695 18.9973V22.2927C1.78695 23.0578 2.42825 23.6802 3.2165 23.6802C4.00476 23.6802 4.64606 23.0578 4.64606 22.2927V14.6614H5.36084V22.2927C5.36084 23.0578 6.00214 23.6802 6.79039 23.6802C7.57865 23.6802 8.21995 23.0578 8.21995 22.2927V8.67195H9.51818ZM5.36084 7.45788C5.36084 7.17099 5.60134 6.93756 5.89692 6.93756H9.51818C9.81376 6.93756 10.0543 7.17099 10.0543 7.45788C10.0543 7.74477 9.81376 7.97819 9.51818 7.97819H5.89692C5.60134 7.97819 5.36084 7.74477 5.36084 7.45788Z" fill="black"/>
<path d="M19.7541 6.97541L19.9803 6.75589C20.4566 7.02908 20.9998 8.04842 19.3625 9.94024C17.7252 11.832 17.6624 13.0617 17.8357 13.4401C18.1177 13.85 18.9415 14.8653 19.9803 15.6472C20.1406 15.7506 20.2702 15.8841 20.3744 16.0333C20.812 16.3405 21.557 16.6018 22.6114 16.3724C24.4956 15.9625 24.3007 17.4129 23.2611 17.6336C22.2216 17.8543 21.1453 17.531 20.7662 17.462C20.7792 17.1387 20.7052 16.5071 20.3744 16.0333C20.3509 16.0168 20.3283 16.0001 20.3065 15.9834C21.0858 17.0986 20.1796 19.1508 18.485 20.0299V22.5944C18.485 22.9891 18.1651 23.309 17.7704 23.309C17.3756 23.309 17.0557 22.9891 17.0557 22.5944V20.0299C16.6877 19.8828 16.0232 19.1155 16.3091 17.2237L11.9325 12.9758C11.5621 12.6163 11.0662 12.4152 10.5499 12.4152H9.92804C9.54062 12.4152 9.22656 12.1012 9.22656 11.7137C9.22656 11.3263 9.54062 11.0123 9.92804 11.0123H10.007C10.007 10.1938 10.6705 9.53034 11.4889 9.53034H11.5219C12.1129 9.53034 12.6806 9.76055 13.1046 10.1721L13.7428 10.7916L14.8636 9.70376C15.0681 9.50528 15.0681 9.17705 14.8636 8.97857C14.2501 8.38312 14.2501 7.39843 14.8636 6.80298L15.0585 6.6138L16.3091 7.2917C16.6566 7.05492 17.3412 6.8005 18.0136 7.05616C18.5906 7.27556 19.311 7.40529 19.7541 6.97541Z" fill="#E1251B"/>
<path d="M19.9803 15.6472C18.9415 14.8653 18.1177 13.85 17.8357 13.4401C17.6624 13.0617 17.7252 11.832 19.3625 9.94024C20.9998 8.04842 20.4566 7.02908 19.9803 6.75589L19.7541 6.97541C19.311 7.40529 18.5906 7.27556 18.0136 7.05616C17.3412 6.8005 16.6566 7.05492 16.3091 7.2917L15.0585 6.6138L14.8636 6.80298C14.2501 7.39843 14.2501 8.38312 14.8636 8.97857V8.97857C15.0681 9.17705 15.0681 9.50528 14.8636 9.70376L13.7428 10.7916M19.9803 15.6472C21.2788 16.6246 20.3692 19.0525 18.485 20.0299V22.5944C18.485 22.9891 18.1651 23.309 17.7704 23.309V23.309C17.3756 23.309 17.0557 22.9891 17.0557 22.5944V20.0299C16.6877 19.8828 16.0232 19.1155 16.3091 17.2237L11.9325 12.9758C11.5621 12.6163 11.0662 12.4152 10.5499 12.4152H9.92804C9.54062 12.4152 9.22656 12.1012 9.22656 11.7137V11.7137C9.22656 11.3263 9.54062 11.0123 9.92804 11.0123H10.007M19.9803 15.6472C20.2293 16.0256 21.1041 16.7003 22.6114 16.3724C24.4956 15.9625 24.3007 17.4129 23.2611 17.6336C22.2216 17.8543 21.1453 17.531 20.7662 17.462C20.7833 17.037 20.65 16.0789 19.9803 15.6472ZM13.7428 10.7916L13.0547 11.4595C12.8499 11.6582 12.5242 11.6582 12.3194 11.4595V11.4595C12.0239 11.1727 11.6283 11.0123 11.2166 11.0123H10.007M13.7428 10.7916L13.1046 10.1721C12.6806 9.76055 12.1129 9.53034 11.5219 9.53034H11.4889C10.6705 9.53034 10.007 10.1938 10.007 11.0123V11.0123" stroke="#E1251B" stroke-width="1.5"/>
</svg>
