<svg width="41" height="40" viewBox="0 0 41 40" fill="none" xmlns="http://www.w3.org/2000/svg">
<path d="M12.6218 12.965H40.369V5.26416H1V12.965H6.52038" stroke="black" stroke-width="1.2"/>
<path d="M40.369 10.4005V39.09H1V10.4005" stroke="black" stroke-width="1.2"/>
<path d="M3.62598 36.3574V16.1237H37.7458V36.3574H3.62598Z" stroke="black" stroke-width="1.2"/>
<path d="M7.56152 3V6.03205" stroke="#E1251B" stroke-width="5.2" stroke-linecap="round"/>
<path d="M20.6836 3V6.03205" stroke="#E1251B" stroke-width="5.2" stroke-linecap="round"/>
<path d="M33.8105 3V6.03205" stroke="#E1251B" stroke-width="5.2" stroke-linecap="round"/>
<path d="M23.9027 22.307C22.5825 21.9195 21.3095 23.1143 20.838 23.7601C19.5179 21.6288 17.7733 21.9033 17.0661 22.307C16.2803 22.7914 14.8973 24.1476 15.6516 25.6977C16.406 27.2477 19.4235 29.8957 20.838 31.0259C22.331 29.7342 25.4114 26.8602 25.7886 25.6977C26.2601 24.2445 25.5529 22.7914 23.9027 22.307Z" fill="#E1251B" stroke="#E1251B" stroke-width="1.2" stroke-linecap="round"/>
</svg>
