<svg width="46" height="42" viewBox="0 0 46 42" fill="none" xmlns="http://www.w3.org/2000/svg">
<path d="M7.53782 20.4325H1V16.0354L22.59 1L44.6361 16.0354V20.4325H41.1392M37.6422 20.4325H41.1392M41.1392 20.4325V26.3899M41.1392 32.3473V26.3899M41.1392 26.3899H37.6422" stroke="black" stroke-width="1.2" stroke-linecap="round"/>
<path d="M3.42969 20.5746V27.5249M3.42969 27.5249H7.83891M3.42969 27.5249V34.9007M3.42969 34.9007H7.38279M3.42969 34.9007V41H15.5931V29.5107C15.8465 27.714 17.5392 24.1774 22.2829 24.4044C27.0267 24.6313 28.9221 27.5249 29.2769 28.9433V32.3476" stroke="black" stroke-width="1.2" stroke-linecap="round"/>
<path d="M41.597 35.8925H29.5856L27.457 40.9989H43.8776L41.597 35.8925Z" fill="#E1251B" stroke="#E1251B" stroke-width="1.2" stroke-linecap="round"/>
<path d="M26.2972 13.8529H26.297L19.3535 13.8529C18.8888 13.8529 18.4784 13.5253 18.436 13.0722L18.4359 13.0721C18.3216 11.8475 17.1736 10.8988 15.8089 10.9894L15.7649 10.412L15.8089 10.9894C14.611 11.0688 13.636 11.9718 13.5422 13.0884C13.4718 13.9281 13.8854 14.6785 14.5524 15.1287L14.5525 15.1288C15.0606 15.4718 15.0612 16.1775 14.5524 16.5208C13.8854 16.971 13.4718 17.7215 13.5422 18.5612C13.6359 19.6778 14.6111 20.5807 15.8089 20.6601L15.8089 20.6601C17.1736 20.7507 18.3216 19.8021 18.4359 18.5775M26.2972 13.8529L32.1082 18.5612C32.0144 19.6778 31.0394 20.5807 29.8415 20.6601L29.8415 20.6601C28.4768 20.7507 27.3288 19.8021 27.2145 18.5775L27.2145 18.5773C27.172 18.1242 26.7616 17.7966 26.297 17.7966L19.3535 17.7966C18.8889 17.7966 18.4782 18.1242 18.4359 18.5775M26.2972 13.8529C26.7613 13.8527 27.1722 13.5255 27.2145 13.072C27.3288 11.8474 28.4768 10.8988 29.8415 10.9894L29.8415 10.9894C31.0394 11.0688 32.0145 11.9717 32.1082 13.0884C32.1787 13.9281 31.7651 14.6785 31.098 15.1287C30.5892 15.472 30.5898 16.1777 31.0979 16.5208L31.098 16.5208M26.2972 13.8529L31.098 16.5208M18.4359 18.5775L19.0541 18.6277M18.4359 18.5775L19.0541 18.6277M19.0541 18.6277C18.9108 20.1622 17.4729 21.3508 15.7649 21.2375L26.297 18.3755L19.3535 18.3755C19.199 18.3755 19.0674 18.4842 19.0541 18.6277ZM31.098 16.5208C31.7651 16.971 32.1787 17.7214 32.1082 18.5611L31.098 16.5208Z" fill="#E1251B" stroke="#E1251B" stroke-width="1.2"/>
</svg>
