<svg width="45" height="42" viewBox="0 0 45 42" fill="none" xmlns="http://www.w3.org/2000/svg">
<path d="M22.8042 14.422C33.8738 11.1636 36.3885 20.1386 36.2621 25.0334V26.5597L28.7213 34.1005C27.0257 34.4646 23.9991 33.8255 25.4579 28.3563C24.0995 28.4277 20.7192 28.4849 18.0655 28.1419C15.4118 27.7989 15.0012 22.997 15.1275 20.6389C15.2539 20.6389 16.1511 20.4888 18.7289 19.8886C21.3068 19.2884 22.5199 15.9941 22.8042 14.422Z" fill="#E1251B" stroke="#E1251B" stroke-width="1.2"/>
<path d="M19.0026 19.0007C19.0026 20.2134 18.1386 22.7751 14.6826 23.3207" stroke="white" stroke-width="1.2" stroke-linecap="round"/>
<path d="M22.6001 40.977L40.4886 22.3544C44.2076 17.3819 48.3782 6.15836 35.3086 1.04383C32.6522 0.759686 26.4627 1.72576 22.9562 7.8632L22.6001 8.27682L22.1201 7.71745" stroke="black" stroke-width="1.2"/>
<path d="M28.8118 18.6215C28.7784 20.0571 28.1705 23.6174 26.0064 26.3738C23.3011 29.8192 23.933 36.3809 27.6402 34.1198" stroke="white" stroke-width="1.2" stroke-linecap="round"/>
<path d="M22.9199 41L4.71132 22.3544C0.992319 17.3819 -3.17827 6.15836 9.89135 1.04383C12.5478 0.759686 18.7373 1.72576 22.2437 7.8632" stroke="black" stroke-width="1.2"/>
<path d="M23.043 19.6004C23.416 18.8617 24.4671 17.8275 25.6879 19.6004" stroke="white" stroke-width="1.2"/>
</svg>
