<svg width="46" height="43" viewBox="0 0 46 43" fill="none" xmlns="http://www.w3.org/2000/svg">
<path d="M28.463 19.0222C30.6836 17.6632 32.164 15.3821 32.6266 14.4114C33.737 13.4408 34.9398 14.007 35.4024 14.4114C36.7903 17.3235 39.1034 19.0222 39.566 19.0222C40.8614 21.7401 39.0263 22.5813 37.9468 22.6622C37.0216 22.4195 34.9397 21.9342 34.0145 21.9342C33.0892 21.9342 31.0074 22.4195 30.0822 22.6622C27.6765 22.0798 28.0004 19.9928 28.463 19.0222Z" fill="#E1251B" stroke="#E1251B" stroke-width="1.2"/>
<path d="M42.7137 15.1682C41.7979 16.1621 40.6378 16.1633 40.1016 15.5812C39.5653 14.9992 39.5664 13.7401 40.4822 12.7462C41.3979 11.7523 42.558 11.7511 43.0943 12.3332C43.6305 12.9152 43.6294 14.1743 42.7137 15.1682Z" fill="#E1251B" stroke="#E1251B" stroke-width="1.2"/>
<path d="M27.9739 12.8195C28.8401 13.8736 28.7698 15.1304 28.2086 15.6736C27.6474 16.2169 26.4889 16.1495 25.6227 15.0954C24.7565 14.0413 24.8268 12.7845 25.388 12.2412C25.9492 11.698 27.1077 11.7654 27.9739 12.8195Z" fill="#E1251B" stroke="#E1251B" stroke-width="1.2"/>
<path d="M38.7311 9.63853C38.5667 10.3046 38.2237 10.8268 37.8297 11.1414C37.4357 11.456 37.0257 11.542 36.675 11.4401C36.3244 11.3381 36.009 11.0411 35.8127 10.5549C35.6164 10.0686 35.5599 9.43018 35.7243 8.7641C35.8888 8.09803 36.2318 7.57579 36.6258 7.26119C37.0198 6.94662 37.4298 6.86059 37.7804 6.96257C38.1311 7.06455 38.4465 7.36154 38.6428 7.84776C38.8391 8.33403 38.8956 8.97245 38.7311 9.63853Z" fill="#E1251B" stroke="#E1251B" stroke-width="1.2"/>
<path d="M32.5192 8.64489C32.7283 9.29464 32.7157 9.93476 32.5534 10.435C32.3911 10.935 32.0965 11.2581 31.7513 11.389C31.4062 11.5198 30.9903 11.466 30.5765 11.1844C30.1625 10.9027 29.7854 10.4102 29.5763 9.7605C29.3672 9.11076 29.3798 8.47063 29.5422 7.97041C29.7045 7.47042 29.999 7.14728 30.3442 7.01643C30.6894 6.88557 31.1052 6.93941 31.5191 7.22101C31.9331 7.50274 32.3101 7.99515 32.5192 8.64489Z" fill="#E1251B" stroke="#E1251B" stroke-width="1.2"/>
<path d="M30.1825 5.98564V1.51282H15.7368V14.3792H1.46094V28.5823H15.7368V41.4487H30.1825V31.9243V24.8367" stroke="black" stroke-width="1.2" stroke-linecap="round"/>
</svg>
