<svg width="25" height="27" viewBox="0 0 25 27" fill="none" xmlns="http://www.w3.org/2000/svg">
<path d="M1.25 6L5 1H20L23.75 6M1.25 6V23.5C1.25 24.163 1.51339 24.7989 1.98223 25.2678C2.45107 25.7366 3.08696 26 3.75 26H21.25C21.913 26 22.5489 25.7366 23.0178 25.2678C23.4866 24.7989 23.75 24.163 23.75 23.5V6M1.25 6H23.75" stroke="white" stroke-width="1.66667" stroke-linecap="round" stroke-linejoin="round"/>
<path d="M17.5 11C17.5 12.3261 16.9732 13.5979 16.0355 14.5355C15.0979 15.4732 13.8261 16 12.5 16C11.1739 16 9.90215 15.4732 8.96447 14.5355C8.02678 13.5979 7.5 12.3261 7.5 11" stroke="white" stroke-width="1.66667" stroke-linecap="round" stroke-linejoin="round"/>
</svg>
