<svg width="31" height="31" viewBox="0 0 31 31" fill="none" xmlns="http://www.w3.org/2000/svg">
<path d="M11.75 3H4.25C3.91848 3 3.60054 3.1317 3.36612 3.36612C3.1317 3.60054 3 3.91848 3 4.25V11.75C3 12.0815 3.1317 12.3995 3.36612 12.6339C3.60054 12.8683 3.91848 13 4.25 13H11.75C12.0815 13 12.3995 12.8683 12.6339 12.6339C12.8683 12.3995 13 12.0815 13 11.75V4.25C13 3.91848 12.8683 3.60054 12.6339 3.36612C12.3995 3.1317 12.0815 3 11.75 3ZM11.75 18H4.25C3.91848 18 3.60054 18.1317 3.36612 18.3661C3.1317 18.6005 3 18.9185 3 19.25V26.75C3 27.0815 3.1317 27.3995 3.36612 27.6339C3.60054 27.8683 3.91848 28 4.25 28H11.75C12.0815 28 12.3995 27.8683 12.6339 27.6339C12.8683 27.3995 13 27.0815 13 26.75V19.25C13 18.9185 12.8683 18.6005 12.6339 18.3661C12.3995 18.1317 12.0815 18 11.75 18ZM26.75 3H19.25C18.9185 3 18.6005 3.1317 18.3661 3.36612C18.1317 3.60054 18 3.91848 18 4.25V11.75C18 12.0815 18.1317 12.3995 18.3661 12.6339C18.6005 12.8683 18.9185 13 19.25 13H26.75C27.0815 13 27.3995 12.8683 27.6339 12.6339C27.8683 12.3995 28 12.0815 28 11.75V4.25C28 3.91848 27.8683 3.60054 27.6339 3.36612C27.3995 3.1317 27.0815 3 26.75 3Z" stroke="white" stroke-width="1.66667" stroke-linejoin="round"/>
<path d="M18 18H28M23 23H28M18 28H28" stroke="white" stroke-width="1.66667" stroke-linecap="round" stroke-linejoin="round"/>
</svg>
