<svg width="87" height="87" viewBox="0 0 87 87" fill="none" xmlns="http://www.w3.org/2000/svg">
<path d="M75.2195 50.149C75.2195 47.6151 74.2692 45.1768 72.6092 43.3096C74.2692 41.4424 75.2195 39.0043 75.2194 36.4703C75.2195 30.8024 70.6084 26.1915 64.9406 26.1913C62.1349 26.1913 59.5203 27.2988 57.5667 29.3123C57.5398 29.3375 57.5136 29.3637 57.4882 29.3908C53.9888 33.1116 47.7771 32.2474 43.5001 32.2123C43.5001 30.7709 43.5149 31.1325 43.5001 32.2123C39.223 32.2473 33.0107 33.113 29.5115 29.3909C29.4863 29.364 29.4599 29.338 29.4332 29.3127C27.4802 27.2961 24.8648 26.1914 22.0592 26.1914C16.3915 26.1914 11.7803 30.8026 11.7803 36.4703C11.7803 39.0043 12.7306 41.4425 14.3907 43.3099C12.7306 45.177 11.7804 47.615 11.7804 50.1491C11.7803 52.9833 12.9327 55.5527 14.7944 57.414C16.6556 59.2748 19.2257 60.428 22.0592 60.4279C24.8645 60.428 27.4787 59.3209 29.4321 57.3079C29.4593 57.2824 29.4858 57.2559 29.5114 57.2286C33.0108 53.5078 39.2231 55.2409 43.5001 55.2759C43.5149 55.9967 43.4709 57.9453 43.5001 55.2759C47.7773 55.2409 53.9917 53.5057 57.488 57.2286C57.5133 57.2555 57.5395 57.2815 57.5664 57.3068C59.5202 59.3197 62.1347 60.4283 64.9403 60.428C70.6083 60.4279 75.2193 55.8168 75.2195 50.149Z" fill="#E1251B"/>
</svg>
