<svg width="31" height="31" viewBox="0 0 31 31" fill="none" xmlns="http://www.w3.org/2000/svg">
<path d="M25.5 15.5H13.625M23 19.25L26.75 15.5L23 11.75M16.75 9.25V8C16.75 7.33696 16.4866 6.70107 16.0178 6.23223C15.5489 5.76339 14.913 5.5 14.25 5.5H8C7.33696 5.5 6.70107 5.76339 6.23223 6.23223C5.76339 6.70107 5.5 7.33696 5.5 8V23C5.5 23.663 5.76339 24.2989 6.23223 24.7678C6.70107 25.2366 7.33696 25.5 8 25.5H14.25C14.913 25.5 15.5489 25.2366 16.0178 24.7678C16.4866 24.2989 16.75 23.663 16.75 23V21.75" stroke="white" stroke-width="1.66667" stroke-linecap="round" stroke-linejoin="round"/>
</svg>
