<svg width="31" height="31" viewBox="0 0 31 31" fill="none" xmlns="http://www.w3.org/2000/svg">
<path d="M25.5 13C25.5 19.2413 18.5762 25.7412 16.2512 27.7487C16.0347 27.9116 15.771 27.9997 15.5 27.9997C15.229 27.9997 14.9653 27.9116 14.7488 27.7487C12.4238 25.7412 5.5 19.2413 5.5 13C5.5 10.3478 6.55357 7.8043 8.42893 5.92893C10.3043 4.05357 12.8478 3 15.5 3C18.1522 3 20.6957 4.05357 22.5711 5.92893C24.4464 7.8043 25.5 10.3478 25.5 13Z" stroke="white" stroke-width="1.66667" stroke-linecap="round" stroke-linejoin="round"/>
<path d="M15.5 16.75C17.5711 16.75 19.25 15.0711 19.25 13C19.25 10.9289 17.5711 9.25 15.5 9.25C13.4289 9.25 11.75 10.9289 11.75 13C11.75 15.0711 13.4289 16.75 15.5 16.75Z" stroke="white" stroke-width="1.66667" stroke-linecap="round" stroke-linejoin="round"/>
</svg>
