<svg width="27" height="27" viewBox="0 0 27 27" fill="none" xmlns="http://www.w3.org/2000/svg">
<path d="M13.5 26C15.1418 26.0021 16.7679 25.6798 18.2848 25.0515C19.8016 24.4231 21.1793 23.5012 22.3388 22.3388C23.5012 21.1793 24.4231 19.8016 25.0515 18.2848C25.6798 16.7679 26.0021 15.1418 26 13.5C26.0021 11.8582 25.6797 10.2321 25.0514 8.71528C24.4231 7.19843 23.5012 5.8207 22.3388 4.66126C21.1793 3.49878 19.8016 2.57688 18.2848 1.94856C16.7679 1.32024 15.1418 0.997883 13.5 1.00001C11.8582 0.997917 10.2321 1.32029 8.71528 1.94861C7.19843 2.57693 5.8207 3.49881 4.66126 4.66126C3.49881 5.8207 2.57693 7.19843 1.94861 8.71528C1.32029 10.2321 0.997917 11.8582 1.00001 13.5C0.997883 15.1418 1.32024 16.7679 1.94856 18.2848C2.57688 19.8016 3.49878 21.1793 4.66126 22.3388C5.8207 23.5012 7.19843 24.4231 8.71528 25.0514C10.2321 25.6797 11.8582 26.0021 13.5 26Z" stroke="white" stroke-width="1.66667" stroke-linejoin="round"/>
<path d="M13.5 16.3906V13.8906C14.2417 13.8906 14.9667 13.6707 15.5834 13.2586C16.2001 12.8466 16.6807 12.2609 16.9645 11.5757C17.2484 10.8905 17.3226 10.1365 17.1779 9.40904C17.0333 8.68161 16.6761 8.01342 16.1517 7.48898C15.6272 6.96453 14.959 6.60738 14.2316 6.46268C13.5042 6.31799 12.7502 6.39225 12.0649 6.67608C11.3797 6.95991 10.794 7.44055 10.382 8.05724C9.96993 8.67392 9.75 9.39895 9.75 10.1406" stroke="white" stroke-width="1.66667" stroke-linecap="round" stroke-linejoin="round"/>
<path fill-rule="evenodd" clip-rule="evenodd" d="M13.5 22.0156C13.9144 22.0156 14.3118 21.851 14.6049 21.558C14.8979 21.265 15.0625 20.8675 15.0625 20.4531C15.0625 20.0387 14.8979 19.6413 14.6049 19.3483C14.3118 19.0552 13.9144 18.8906 13.5 18.8906C13.0856 18.8906 12.6882 19.0552 12.3951 19.3483C12.1021 19.6413 11.9375 20.0387 11.9375 20.4531C11.9375 20.8675 12.1021 21.265 12.3951 21.558C12.6882 21.851 13.0856 22.0156 13.5 22.0156Z" fill="white"/>
</svg>
