<svg width="27" height="19" viewBox="0 0 27 19" fill="none" xmlns="http://www.w3.org/2000/svg">
<path d="M18.1875 13.25C17.9389 13.25 17.7004 13.3488 17.5246 13.5246C17.3488 13.7004 17.25 13.9389 17.25 14.1875C17.25 14.4361 17.3488 14.6746 17.5246 14.8504C17.7004 15.0262 17.9389 15.125 18.1875 15.125H21.9375C22.1861 15.125 22.4246 15.0262 22.6004 14.8504C22.7762 14.6746 22.875 14.4361 22.875 14.1875C22.875 13.9389 22.7762 13.7004 22.6004 13.5246C22.4246 13.3488 22.1861 13.25 21.9375 13.25H18.1875ZM0.375 4.8125C0.375 3.5693 0.86886 2.37701 1.74794 1.49794C2.62701 0.61886 3.8193 0.125 5.0625 0.125H21.9375C23.1807 0.125 24.373 0.61886 25.2521 1.49794C26.1311 2.37701 26.625 3.5693 26.625 4.8125V14.1875C26.625 15.4307 26.1311 16.623 25.2521 17.5021C24.373 18.3811 23.1807 18.875 21.9375 18.875H5.0625C3.8193 18.875 2.62701 18.3811 1.74794 17.5021C0.86886 16.623 0.375 15.4307 0.375 14.1875V4.8125ZM24.75 5.75V4.8125C24.75 4.06658 24.4537 3.35121 23.9262 2.82376C23.3988 2.29632 22.6834 2 21.9375 2H5.0625C4.31658 2 3.60121 2.29632 3.07376 2.82376C2.54632 3.35121 2.25 4.06658 2.25 4.8125V5.75H24.75ZM2.25 7.625V14.1875C2.25 14.9334 2.54632 15.6488 3.07376 16.1762C3.60121 16.7037 4.31658 17 5.0625 17H21.9375C22.6834 17 23.3988 16.7037 23.9262 16.1762C24.4537 15.6488 24.75 14.9334 24.75 14.1875V7.625H2.25Z" fill="white"/>
</svg>
