<svg width="39" height="32" viewBox="0 0 39 32" fill="none" xmlns="http://www.w3.org/2000/svg">
<path d="M9.34703 24.0708C13.2691 21.6706 15.8839 17.6417 16.701 15.9272C18.662 14.2128 20.7865 15.2129 21.6036 15.9272C24.0549 21.0706 28.1404 24.0708 28.9575 24.0708C31.2454 28.8713 28.0042 30.3571 26.0976 30.5C24.4634 30.0714 20.7864 29.2142 19.1522 29.2142C17.518 29.2142 13.8411 30.0714 12.2069 30.5C7.95795 29.4713 8.52992 25.7853 9.34703 24.0708Z" stroke="white" stroke-width="1.2"/>
<path d="M34.8288 17.6056C33.1077 19.4735 30.7726 19.6164 29.5922 18.3352C28.4117 17.054 28.5433 14.5195 30.2644 12.6516C31.9854 10.7838 34.3205 10.6409 35.501 11.9221C36.6814 13.2033 36.5498 15.7377 34.8288 17.6056Z" stroke="white" stroke-width="1.2"/>
<path d="M8.8125 12.7956C10.4367 14.7722 10.4297 17.3103 9.18861 18.5117C7.94748 19.7132 5.62335 19.4315 3.99913 17.455C2.37491 15.4785 2.38189 12.9403 3.62302 11.7389C4.86415 10.5375 7.18828 10.8191 8.8125 12.7956Z" stroke="white" stroke-width="1.2"/>
<path d="M27.9243 7.62919C27.6125 8.89222 26.9577 9.90302 26.1787 10.525C25.3998 11.1469 24.5318 11.359 23.7411 11.1291C22.9504 10.8991 22.2964 10.2443 21.9084 9.28306C21.5203 8.32174 21.4189 7.09102 21.7307 5.82799C22.0425 4.56497 22.6973 3.55416 23.4762 2.93223C24.2551 2.31032 25.1232 2.09818 25.9139 2.32812C26.7045 2.55806 27.3586 3.21286 27.7466 4.17413C28.1347 5.13545 28.2361 6.36617 27.9243 7.62919Z" stroke="white" stroke-width="1.2"/>
<path d="M16.9398 5.58293C17.3367 6.81611 17.3197 8.05052 16.9986 9.03992C16.6775 10.0291 16.0698 10.7363 15.2945 11.0302C14.5193 11.3241 13.638 11.1813 12.8193 10.6242C12.0005 10.067 11.2791 9.11245 10.8823 7.87927C10.4854 6.64609 10.5023 5.41168 10.8235 4.42227C11.1445 3.43311 11.7523 2.72589 12.5275 2.43201C13.3028 2.13813 14.184 2.28086 15.0027 2.83797C15.8216 3.39521 16.5429 4.34975 16.9398 5.58293Z" stroke="white" stroke-width="1.2"/>
</svg>
