<svg width="29" height="29" viewBox="0 0 29 29" fill="none" xmlns="http://www.w3.org/2000/svg">
<path d="M27.8638 5.8491C27.0939 4.92193 25.9919 4.33255 24.7933 4.20683C24.7172 3.51436 24.4862 2.8479 24.1174 2.2569C23.7486 1.6659 23.2514 1.16551 22.6628 0.792862C22.0742 0.420213 21.4093 0.184862 20.7173 0.104266C20.0254 0.0236709 19.3241 0.0998996 18.6656 0.327298C18.0072 0.554696 17.4083 0.927428 16.9136 1.41785C16.4188 1.90827 16.0408 2.50379 15.8076 3.16023C15.5744 3.81668 15.4919 4.51721 15.5664 5.20986C15.6409 5.90251 15.8704 6.5695 16.2378 7.16136C16.2382 7.16478 16.2382 7.16825 16.2378 7.17168L7.17439 16.2415H7.1615C6.56964 15.8741 5.90264 15.6446 5.21 15.5701C4.51735 15.4957 3.81682 15.5781 3.16037 15.8113C2.50392 16.0445 1.9084 16.4225 1.41798 16.9173C0.927566 17.4121 0.554833 18.0109 0.327435 18.6694C0.100037 19.3279 0.0238082 20.0291 0.104404 20.721C0.184999 21.413 0.42035 22.078 0.793 22.6665C1.16565 23.2551 1.66603 23.7523 2.25704 24.1211C2.84804 24.4899 3.5145 24.7209 4.20697 24.797C4.28306 25.4895 4.51409 26.156 4.8829 26.747C5.25172 27.338 5.74886 27.8383 6.33745 28.211C6.92604 28.5836 7.59098 28.819 8.28295 28.8996C8.97491 28.9802 9.67614 28.904 10.3346 28.6766C10.9931 28.4492 11.5919 28.0764 12.0867 27.586C12.5815 27.0956 12.9595 26.5001 13.1927 25.8436C13.4259 25.1872 13.5083 24.4866 13.4339 23.794C13.3594 23.1014 13.1299 22.4344 12.7625 21.8425V21.8322L21.831 12.7623H21.8439C22.7804 13.3522 23.8969 13.5879 24.9919 13.427C26.087 13.2661 27.0884 12.7191 27.8156 11.8847C28.5428 11.0503 28.9478 9.9835 28.9576 8.87676C28.9674 7.77001 28.5813 6.69621 27.869 5.8491H27.8638ZM26.2435 10.5245C25.8402 10.9863 25.2856 11.2892 24.6792 11.379C24.0728 11.4687 23.4542 11.3395 22.9345 11.0144C22.5388 10.7633 22.0694 10.6545 21.6036 10.7058C21.1378 10.7571 20.7034 10.9655 20.3718 11.2967L11.2968 20.3717C10.9664 20.7038 10.759 21.1386 10.7086 21.6044C10.6582 22.0702 10.7679 22.5392 11.0197 22.9343C11.2392 23.2874 11.37 23.6883 11.4011 24.1029C11.4321 24.5174 11.3625 24.9334 11.198 25.3152C11.0336 25.697 10.7793 26.0334 10.4567 26.2957C10.1342 26.558 9.753 26.7384 9.34567 26.8215C8.93833 26.9047 8.51694 26.8881 8.11741 26.7731C7.71789 26.6582 7.35208 26.4484 7.05118 26.1615C6.75028 25.8746 6.52321 25.5193 6.38934 25.1257C6.25547 24.7321 6.21877 24.312 6.28236 23.9011C6.30546 23.7539 6.29638 23.6034 6.25574 23.4601C6.21511 23.3167 6.14388 23.1838 6.04698 23.0706C5.95007 22.9574 5.82978 22.8666 5.69439 22.8043C5.559 22.7421 5.41173 22.7099 5.26271 22.71C5.20962 22.7105 5.15663 22.7148 5.10416 22.7229C4.69374 22.786 4.27416 22.7491 3.88109 22.6152C3.48803 22.4813 3.13312 22.2545 2.84656 21.954C2.56 21.6535 2.35026 21.2882 2.23519 20.8892C2.12012 20.4902 2.10312 20.0694 2.18564 19.6624C2.26816 19.2554 2.44775 18.8744 2.70915 18.5518C2.97054 18.2292 3.306 17.9744 3.68698 17.8093C4.06797 17.6441 4.48321 17.5735 4.89737 17.6033C5.31154 17.6331 5.71238 17.7625 6.0658 17.9805C6.46148 18.2315 6.93087 18.3404 7.39667 18.2891C7.86247 18.2378 8.29691 18.0293 8.62845 17.6982L17.7035 8.62316C18.0326 8.29134 18.2393 7.85756 18.2896 7.39291C18.34 6.92826 18.231 6.46029 17.9806 6.06566C17.7611 5.71259 17.6303 5.31169 17.5992 4.89712C17.5681 4.48255 17.6378 4.06662 17.8022 3.68479C17.9667 3.30297 18.221 2.96656 18.5435 2.70427C18.8661 2.44198 19.2473 2.26158 19.6546 2.17845C20.0619 2.09532 20.4833 2.11193 20.8829 2.22686C21.2824 2.34179 21.6482 2.55163 21.9491 2.8385C22.25 3.12536 22.4771 3.48073 22.6109 3.87432C22.7448 4.2679 22.7815 4.68803 22.7179 5.09886C22.6928 5.25932 22.706 5.42343 22.7563 5.57783C22.8066 5.73223 22.8927 5.87257 23.0076 5.9874C23.1224 6.10224 23.2627 6.18833 23.4171 6.23867C23.5715 6.289 23.7357 6.30216 23.8961 6.27707C24.4211 6.19212 24.9595 6.27159 25.4375 6.50459C25.9156 6.7376 26.3099 7.11273 26.5664 7.57859C26.8229 8.04444 26.929 8.57822 26.8703 9.10677C26.8116 9.63532 26.5908 10.1328 26.2383 10.531L26.2435 10.5245Z" fill="white"/>
</svg>
