<svg width="31" height="31" viewBox="0 0 31 31" fill="none" xmlns="http://www.w3.org/2000/svg">
<path fill-rule="evenodd" clip-rule="evenodd" d="M15.5001 2.0625C13.9253 2.0625 12.4151 2.68806 11.3016 3.80155C10.1881 4.91505 9.56257 6.42528 9.56257 8C9.56257 9.57472 10.1881 11.085 11.3016 12.1984C12.4151 13.3119 13.9253 13.9375 15.5001 13.9375C17.0748 13.9375 18.585 13.3119 19.6985 12.1984C20.812 11.085 21.4376 9.57472 21.4376 8C21.4376 6.42528 20.812 4.91505 19.6985 3.80155C18.585 2.68806 17.0748 2.0625 15.5001 2.0625ZM11.4376 8C11.4376 6.92256 11.8656 5.88925 12.6274 5.12738C13.3893 4.36551 14.4226 3.9375 15.5001 3.9375C16.5775 3.9375 17.6108 4.36551 18.3727 5.12738C19.1346 5.88925 19.5626 6.92256 19.5626 8C19.5626 9.07744 19.1346 10.1108 18.3727 10.8726C17.6108 11.6345 16.5775 12.0625 15.5001 12.0625C14.4226 12.0625 13.3893 11.6345 12.6274 10.8726C11.8656 10.1108 11.4376 9.07744 11.4376 8ZM15.5001 15.8125C12.6088 15.8125 9.94382 16.47 7.97007 17.58C6.02507 18.675 4.56257 20.3325 4.56257 22.375V22.5025C4.56132 23.955 4.56007 25.7775 6.15882 27.08C6.94507 27.72 8.04632 28.1763 9.53382 28.4763C11.0238 28.7788 12.9676 28.9375 15.5001 28.9375C18.0326 28.9375 19.9751 28.7788 21.4676 28.4763C22.9551 28.1763 24.0551 27.72 24.8426 27.08C26.4413 25.7775 26.4388 23.955 26.4376 22.5025V22.375C26.4376 20.3325 24.9751 18.675 23.0313 17.58C21.0563 16.47 18.3926 15.8125 15.5001 15.8125ZM6.43757 22.375C6.43757 21.3113 7.21507 20.1563 8.88882 19.215C10.5338 18.29 12.8688 17.6875 15.5013 17.6875C18.1313 17.6875 20.4663 18.29 22.1113 19.215C23.7863 20.1563 24.5626 21.3113 24.5626 22.375C24.5626 24.01 24.5126 24.93 23.6576 25.625C23.1951 26.0025 22.4201 26.3713 21.0951 26.6388C19.7738 26.9063 17.9676 27.0625 15.5001 27.0625C13.0326 27.0625 11.2251 26.9063 9.90507 26.6388C8.58007 26.3713 7.80507 26.0025 7.34257 25.6263C6.48757 24.93 6.43757 24.01 6.43757 22.375Z" fill="white"/>
</svg>
